<svg version="1.1" xmlns="http://www.w3.org/2000/svg" style="display: block;" viewBox="0 0 2048 668" width="2048" height="668" preserveAspectRatio="none">
<defs>
	<linearGradient id="Gradient1" gradientUnits="userSpaceOnUse" x1="338.107" y1="234.768" x2="334.324" y2="63.0149">
		<stop class="stop0" offset="0" stop-opacity="1" stop-color="rgb(236,105,44)"/>
		<stop class="stop1" offset="1" stop-opacity="1" stop-color="rgb(241,166,59)"/>
	</linearGradient>
</defs>
<path transform="translate(0,0)" fill="rgb(255,255,255)" d="M 0 0 L 2048 0 L 2048 668 L 0 668 L 0 0 z"/>
<path transform="translate(0,0)" fill="rgb(31,51,79)" d="M 949.436 474.783 C 942.3 483.603 909.837 486.65 898.491 487.354 C 820.911 492.174 796.469 436.508 818.966 369.25 C 825.876 357.386 836.335 339.391 847.461 331.971 C 909.161 290.821 1015.76 307.691 998.613 403.211 C 993.788 430.088 982.746 451.767 961.259 467.675 C 956.791 470.748 954.316 472.478 949.436 474.783 z"/>
<path transform="translate(0,0)" fill="rgb(16,29,54)" d="M 949.436 474.783 L 949.959 472.052 C 954.062 466.665 954.953 464.654 961.259 467.675 C 956.791 470.748 954.316 472.478 949.436 474.783 z"/>
<path transform="translate(0,0)" fill="rgb(255,255,255)" d="M 883.225 448.559 C 882.883 447.976 883.041 448.08 882.528 447.756 C 855.307 430.553 866.586 378.029 885.431 358.566 C 904.53 338.842 939.117 341.877 944.968 371.866 C 949.664 395.932 942.406 416.803 929.651 436.81 C 935.704 450.98 886.802 461.395 883.225 448.559 z"/>
<path transform="translate(0,0)" fill="rgb(16,29,54)" d="M 883.225 448.559 C 904.936 452.65 912.837 452.823 929.651 436.81 C 935.704 450.98 886.802 461.395 883.225 448.559 z"/>
<path transform="translate(0,0)" fill="rgb(31,51,79)" d="M 140.989 208.062 C 156.003 195.667 220.533 179.097 241.985 173.964 C 241.635 191.255 242.419 201.462 250.302 217.905 C 252.038 221.525 255.011 225.539 256.317 228.194 L 266.649 239.939 L 267.734 240.868 C 266.729 241.669 250.745 244.144 246.948 245.496 C 233.426 250.309 225.087 257.834 216.836 269.502 C 215.853 270.891 212.961 276.434 211.799 277.119 C 208.226 290.967 203.052 308.641 207.234 323.001 C 208.711 337.854 217.614 352.367 225.427 364.879 C 227.645 368.431 230.671 370.28 233.53 375.517 C 231.65 378.329 219.459 400.533 219.43 400.549 C 214.03 426.454 209.509 443.812 217.858 470.389 C 218.825 473.469 220.903 479.028 221.414 481.791 C 223.721 483.849 226.744 494.537 229.388 498.69 C 236.521 509.896 243.595 518.358 252.795 527.797 L 257.605 532.008 C 252.817 536.307 221.429 535.682 214.339 534.021 C 206.658 532.223 204.808 529.894 199.915 524.255 C 192.669 518.456 183.737 504.477 178.146 496.592 C 147.306 453.04 138.007 400.056 139.041 347.677 C 139.945 301.903 137.648 255.325 139.449 209.662 L 140.989 208.062 z"/>
<!-- ...SVG content truncated for brevity... -->
</svg>
