<svg version="1.1" xmlns="http://www.w3.org/2000/svg" style="display: block;" viewBox="0 0 2048 668" width="2048" height="668" preserveAspectRatio="none">
<defs>
	<linearGradient id="Gradient1" gradientUnits="userSpaceOnUse" x1="338.107" y1="234.768" x2="334.324" y2="63.0149">
		<stop class="stop0" offset="0" stop-opacity="1" stop-color="rgb(236,105,44)"/>
		<stop class="stop1" offset="1" stop-opacity="1" stop-color="rgb(241,166,59)"/>
	</linearGradient>
</defs>
<path transform="translate(0,0)" fill="rgb(255,255,255)" d="M 0 0 L 2048 0 L 2048 668 L 0 668 L 0 0 z"/>
<path transform="translate(0,0)" fill="rgb(31,51,79)" d="M 949.436 474.783 C 942.3 483.603 909.837 486.65 898.491 487.354 C 820.911 492.174 796.469 436.508 818.966 369.25 C 825.876 357.386 836.335 339.391 847.461 331.971 C 909.161 290.821 1015.76 307.691 998.613 403.211 C 993.788 430.088 982.746 451.767 961.259 467.675 C 956.791 470.748 954.316 472.478 949.436 474.783 z"/>
<path transform="translate(0,0)" fill="rgb(16,29,54)" d="M 949.436 474.783 L 949.959 472.052 C 954.062 466.665 954.953 464.654 961.259 467.675 C 956.791 470.748 954.316 472.478 949.436 474.783 z"/>
<path transform="translate(0,0)" fill="rgb(255,255,255)" d="M 883.225 448.559 C 882.883 447.976 883.041 448.08 882.528 447.756 C 855.307 430.553 866.586 378.029 885.431 358.566 C 904.53 338.842 939.117 341.877 944.968 371.866 C 949.664 395.932 942.406 416.803 929.651 436.81 C 935.704 450.98 886.802 461.395 883.225 448.559 z"/>
<path transform="translate(0,0)" fill="rgb(16,29,54)" d="M 883.225 448.559 C 904.936 452.65 912.837 452.823 929.651 436.81 C 935.704 450.98 886.802 461.395 883.225 448.559 z"/>
<path transform="translate(0,0)" fill="rgb(31,51,79)" d="M 140.989 208.062 C 156.003 195.667 220.533 179.097 241.985 173.964 C 241.635 191.255 242.419 201.462 250.302 217.905 C 252.038 221.525 255.011 225.539 256.317 228.194 L 266.649 239.939 L 267.734 240.868 C 266.729 241.669 250.745 244.144 246.948 245.496 C 233.426 250.309 225.087 257.834 216.836 269.502 C 215.853 270.891 212.961 276.434 211.799 277.119 C 208.226 290.967 203.052 308.641 207.234 323.001 C 208.711 337.854 217.614 352.367 225.427 364.879 C 227.645 368.431 230.671 370.28 233.53 375.517 C 231.65 378.329 219.459 400.533 219.43 400.549 C 214.03 426.454 209.509 443.812 217.858 470.389 C 218.825 473.469 220.903 479.028 221.414 481.791 C 223.721 483.849 226.744 494.537 229.388 498.69 C 236.521 509.896 243.595 518.358 252.795 527.797 L 257.605 532.008 C 252.817 536.307 221.429 535.682 214.339 534.021 C 206.658 532.223 204.808 529.894 199.915 524.255 C 192.669 518.456 183.737 504.477 178.146 496.592 C 147.306 453.04 138.007 400.056 139.041 347.677 C 139.945 301.903 137.648 255.325 139.449 209.662 L 140.989 208.062 z"/>
<path transform="translate(0,0)" fill="rgb(16,29,54)" d="M 221.414 481.791 L 220.689 482.111 L 217.594 480.344 C 214.075 469.759 211.055 458.21 211.329 447.059 C 211.626 435.005 208.614 407.952 219.43 400.549 C 214.03 426.454 209.509 443.812 217.858 470.389 C 218.825 473.469 220.903 479.028 221.414 481.791 z"/>
<path transform="translate(0,0)" fill="rgb(16,29,54)" d="M 199.915 524.255 C 206.484 522.661 208.106 529.563 211.582 530.107 C 219.99 531.424 247.347 534.193 252.795 527.797 L 257.605 532.008 C 252.817 536.307 221.429 535.682 214.339 534.021 C 206.658 532.223 204.808 529.894 199.915 524.255 z"/>
<path transform="translate(0,0)" fill="rgb(16,29,54)" d="M 207.234 323.001 C 207.066 325.495 207.008 326.416 206.375 328.838 C 201.199 321.432 203.847 285.791 209.043 277.569 L 211.799 277.119 C 208.226 290.967 203.052 308.641 207.234 323.001 z"/>
<path transform="translate(0,0)" fill="rgb(16,29,54)" d="M 140.989 208.062 L 143.088 209.168 C 142.833 232.647 142.746 256.128 142.827 279.609 C 136.886 270.294 145.484 219.158 139.449 209.662 L 140.989 208.062 z"/>
<path transform="translate(0,0)" fill="rgb(16,29,54)" d="M 266.649 239.939 C 260.499 242.034 256.876 237.446 254.103 232.362 C 254.691 229.271 254.108 230.287 256.317 228.194 L 266.649 239.939 z"/>
<path transform="translate(0,0)" fill="rgb(31,51,79)" d="M 427.207 219.723 C 429.518 212.726 435.377 194.883 433.937 187.79 C 433.304 184.674 429.636 175.156 428.57 170.186 C 433.378 170.152 454.016 174.881 458.01 177.315 C 467.148 176.646 524.9 201.587 534.928 206.154 L 535.207 316.861 C 535.218 340.056 536.132 365.941 534.501 388.839 C 531.004 437.927 511.365 485.466 477.354 521.23 C 476.048 522.606 471.705 526.867 469.988 527.157 C 459.646 535.164 449.581 535.317 436.924 534.818 C 434.245 535.142 429.753 535.005 426.916 535.006 L 426.218 533.955 C 429.058 529.997 432.016 527.272 434.852 523.145 C 440.268 515.259 444.42 506.913 449.544 498.863 C 452.935 490.543 458.358 477.878 459.385 469.114 C 469.492 437.98 457.096 397.144 442.178 374.153 C 440.389 371.396 465.87 340.618 463.948 327.339 C 464.229 329.286 466.753 293.389 466.528 295.532 L 464.863 290.28 C 460.748 271.207 452.735 259.008 434.932 250.002 C 426.407 245.689 418.252 244.724 409.69 241.294 C 409.996 239.881 424.492 223.517 427.207 219.723 z"/>
<path transform="translate(0,0)" fill="rgb(16,29,54)" d="M 427.207 219.723 C 429.518 212.726 435.377 194.883 433.937 187.79 C 433.304 184.674 429.636 175.156 428.57 170.186 C 433.378 170.152 454.016 174.881 458.01 177.315 C 450.029 181.479 438.147 171.435 434.638 175.997 C 435.462 184.323 438.866 217.171 427.207 219.723 z"/>
<path transform="translate(0,0)" fill="rgb(16,29,54)" d="M 459.385 469.114 C 463.815 477.116 456.016 492.049 451.667 498.877 C 450.32 499.158 450.637 499.3 449.544 498.863 C 452.935 490.543 458.358 477.878 459.385 469.114 z"/>
<path transform="translate(0,0)" fill="rgb(16,29,54)" d="M 436.924 534.818 C 443.621 534.036 447.075 531.864 453.423 531.78 C 457.239 531.729 463.755 527.275 466.474 524.729 L 466.677 524.536 L 469.988 527.157 C 459.646 535.164 449.581 535.317 436.924 534.818 z"/>
<path transform="translate(0,0)" fill="rgb(16,29,54)" d="M 464.863 290.28 L 465.301 284.709 C 469.732 287.622 470.525 312.759 467.705 316.421 C 466.215 309.508 467.756 299.846 466.528 295.532 L 464.863 290.28 z"/>
<path transform="translate(0,0)" fill="rgb(31,51,79)" d="M 1363.25 357.941 C 1363.66 350.29 1378.73 252.559 1380.37 251.959 C 1385.78 249.976 1420.39 250.417 1429.35 251.246 C 1433.88 257.115 1418.28 315.058 1420.65 326.325 L 1422.35 326.877 C 1444.13 311.927 1464.4 309.206 1490.12 313.044 C 1543.57 321.022 1521.87 385.49 1517.68 421.297 C 1516.6 430.52 1512.03 468.922 1509.47 475.318 C 1509.35 477.574 1509.03 479.773 1508.74 482.012 C 1505.07 484.646 1465.97 483.436 1457.85 483.413 C 1457.86 476.102 1459.3 471.592 1460.38 464.478 C 1459.85 462.327 1460.44 461.143 1461.12 459.034 C 1462.94 448.466 1470.07 391.669 1472.82 385.731 C 1473.63 368.623 1476.28 349.577 1451.6 348.438 C 1439.84 347.896 1424.12 354.94 1415.82 363.269 C 1415.4 363.685 1415.01 364.117 1414.62 364.564 C 1414.11 369.943 1412.16 386.385 1410.11 390.786 C 1410.29 396.235 1406.93 413.789 1405.91 420.021 C 1405.5 423.421 1405.13 427.731 1404.15 430.934 C 1402.66 439.4 1401.31 455.915 1398.54 462.958 C 1399.33 467.653 1397.72 477.379 1396.33 481.915 L 1394.86 483.024 C 1389.15 483.817 1351.32 483.548 1345.12 482.69 C 1343.04 478.726 1348.85 448.788 1349.84 442.047 C 1350.17 437.408 1354.63 407.44 1355.91 404.143 C 1356.66 401.602 1357.06 395.894 1357.35 393.037 C 1357.29 391.677 1359.64 378.427 1360.18 377.051 C 1361.05 370.658 1362.08 364.287 1363.25 357.941 z"/>
<path transform="translate(0,0)" fill="rgb(16,29,54)" d="M 1349.84 442.047 C 1359.69 445.135 1341.55 476.143 1352.02 479.267 C 1361.58 482.118 1379.53 477.392 1388.96 480.733 L 1388.49 480.848 C 1390.53 481.138 1392.45 481.253 1394.29 482.146 L 1394.86 483.024 C 1389.15 483.817 1351.32 483.548 1345.12 482.69 C 1343.04 478.726 1348.85 448.788 1349.84 442.047 z"/>
<path transform="translate(0,0)" fill="rgb(16,29,54)" d="M 1460.38 464.478 C 1463.38 468.453 1462.5 474.281 1462.23 479.293 C 1470.99 479.577 1498.75 481.551 1505.37 478.538 C 1506.68 475.459 1507.4 472.291 1508.24 469.058 C 1509.38 471.001 1509.31 473.052 1509.47 475.318 C 1509.35 477.574 1509.03 479.773 1508.74 482.012 C 1505.07 484.646 1465.97 483.436 1457.85 483.413 C 1457.86 476.102 1459.3 471.592 1460.38 464.478 z"/>
<path transform="translate(0,0)" fill="rgb(16,29,54)" d="M 1472.82 385.731 C 1476.53 393.761 1466.09 451.155 1463.03 462.295 L 1462.19 462.75 L 1461.12 459.034 C 1462.94 448.466 1470.07 391.669 1472.82 385.731 z"/>
<path transform="translate(0,0)" fill="rgb(16,29,54)" d="M 1398.54 462.958 C 1397.05 455.997 1400.55 432.205 1401.47 424.144 C 1402.59 423.031 1403.08 422.378 1403.54 420.861 C 1403.62 424.508 1403.68 427.285 1404.15 430.934 C 1402.66 439.4 1401.31 455.915 1398.54 462.958 z"/>
<path transform="translate(0,0)" fill="rgb(16,29,54)" d="M 1405.91 420.021 L 1403.59 418.612 C 1401.11 412.495 1408.55 393.244 1408.67 383.937 L 1408.68 383.55 L 1409.7 383.062 L 1410.11 390.786 C 1410.29 396.235 1406.93 413.789 1405.91 420.021 z"/>
<path transform="translate(0,0)" fill="rgb(16,29,54)" d="M 1363.25 357.941 L 1364.88 359.201 C 1364.98 366.561 1365.13 373.27 1362.86 380.325 L 1361.61 381.298 C 1361.02 379.769 1360.54 378.673 1360.18 377.051 C 1361.05 370.658 1362.08 364.287 1363.25 357.941 z"/>
<path transform="translate(0,0)" fill="rgb(16,29,54)" d="M 1357.35 393.037 C 1357.85 394.039 1359.4 397.246 1360.01 397.989 C 1360.16 401.606 1359.39 409.766 1357.12 412.527 C 1354.98 410.176 1357.12 407.728 1355.91 404.143 C 1356.66 401.602 1357.06 395.894 1357.35 393.037 z"/>
<path transform="translate(0,0)" fill="rgb(31,51,79)" d="M 721.816 259.404 C 736.704 254.923 786.154 255.394 800.16 261.567 C 801.881 261.131 812.86 264.257 814.903 265.327 C 827.228 271.783 822.881 276.662 819.054 285.691 C 816.063 292.747 815.142 300.216 811.823 307.086 C 780.264 295.653 746.759 290.486 716.371 308.501 C 671.392 335.166 652.992 432.374 718.854 445.41 C 741.931 449.977 771.322 444.339 791.144 431.546 C 791.725 437.369 799.082 472.585 796.796 473.676 C 766.175 488.288 730.56 490.167 697.198 486.706 C 589.968 475.581 594.985 336.879 664.333 284.014 C 675.531 275.459 708.609 257.679 721.816 259.404 z"/>
<path transform="translate(0,0)" fill="rgb(16,29,54)" d="M 721.816 259.404 C 736.704 254.923 786.154 255.394 800.16 261.567 C 797.115 263.95 791.933 261.798 788.486 261.535 C 774.832 260.494 761.048 260.323 747.362 259.943 C 740.868 259.762 727.222 262.278 721.816 259.404 z"/>
<path transform="translate(0,0)" fill="rgb(16,29,54)" d="M 722.272 448.072 C 729.775 447.961 737.645 448.113 745.181 448.149 L 744.806 448.315 C 741.674 453.775 727.006 450.948 722.272 448.072 z"/>
<path transform="translate(0,0)" fill="rgb(31,51,79)" d="M 1092.01 311.943 C 1114.19 311.758 1139.76 311.151 1157.52 327.237 C 1166.97 335.796 1171.59 355.471 1170.62 366.352 C 1169.34 380.682 1158.47 467.265 1155.08 476.439 C 1155.44 479.051 1155.26 479.572 1154.69 482.144 C 1150.74 484.647 1116.74 483.455 1109.76 483.396 C 1109.73 478.518 1109.72 476.743 1110.71 471.969 C 1109.91 468.999 1110.49 469.58 1108.51 467.587 C 1099.62 474.609 1086.65 482.332 1075.63 484.728 C 1053.97 489.436 1029.72 487.392 1013.16 471.463 C 1010.2 467.192 1007.05 462.255 1006.32 457.083 C 1004.38 454.485 1004.28 447.887 1004.19 444.4 C 1002.51 381.957 1070.59 378.659 1117.02 378.734 L 1117.4 361.125 C 1104.43 338.918 1077.17 346.922 1056.29 351.247 C 1050.1 352.53 1040.46 357.441 1034.52 357.297 C 1032.98 353.317 1032.5 328.331 1033.27 324.419 C 1033.74 322.072 1051.72 316.917 1055.17 316.544 C 1069.18 312.708 1077.78 311.923 1092.01 311.943 z"/>
<path transform="translate(0,0)" fill="rgb(16,29,54)" d="M 1113.56 479.48 C 1121.85 479.678 1145.38 481.958 1152.03 477.456 C 1154.66 475.679 1151.94 469.396 1154.66 468.022 L 1155.08 476.439 C 1155.44 479.051 1155.26 479.572 1154.69 482.144 C 1150.74 484.647 1116.74 483.455 1109.76 483.396 C 1109.73 478.518 1109.72 476.743 1110.71 471.969 L 1112.68 468.938 C 1114.22 471.124 1113.58 476.21 1113.56 479.48 z"/>
<path transform="translate(0,0)" fill="rgb(16,29,54)" d="M 1055.17 316.544 C 1069.18 312.708 1077.78 311.923 1092.01 311.943 L 1094.73 313.234 C 1089.49 315.935 1062.42 318.139 1056.72 317.506 L 1055.17 316.544 z"/>
<path transform="translate(0,0)" fill="rgb(16,29,54)" d="M 1006.32 457.083 L 1007.69 455.833 C 1011.33 460.464 1012.74 462.05 1014.86 467.497 C 1014.3 468.915 1013.84 470.079 1013.16 471.463 C 1010.2 467.192 1007.05 462.255 1006.32 457.083 z"/>
<path transform="translate(0,0)" fill="rgb(255,255,255)" d="M 1107.61 405.426 C 1108.7 405.406 1109.95 405.711 1111.05 405.911 C 1113.58 409.746 1109.53 434.829 1107.23 438.488 C 1100.27 449.565 1073.47 457.026 1062.36 450.514 C 1058.17 449.215 1056.09 443.686 1054.36 440.08 C 1054.35 435.582 1054.62 430.484 1054.76 425.936 C 1068.81 405.814 1085.03 406.904 1107.61 405.426 z"/>
<path transform="translate(0,0)" fill="rgb(236,111,45)" d="M 1566.74 260.769 L 1699.85 260.718 C 1700.33 272.306 1696.19 284.596 1695.63 296.955 L 1614.59 296.999 C 1612.09 304.084 1605.79 341.565 1607.03 350.789 C 1607.17 351.786 1609.18 352.32 1610.42 352.858 C 1616.05 351.525 1666.93 351.507 1673.55 352.591 C 1675.56 356.357 1673.16 359.148 1672.46 363.138 C 1673.49 366.35 1670.93 386.202 1668.13 386.46 C 1646.98 388.4 1622.79 387.37 1601.39 387.027 C 1598.81 396.83 1596.19 415.762 1594.56 426.73 C 1591.91 444.623 1587.91 466.172 1586.65 483.831 C 1576.23 483.592 1541.48 484.806 1533.02 482.77 C 1532.06 478.971 1564.04 282.876 1566.74 260.769 z"/>
<path transform="translate(0,0)" fill="rgb(233,99,44)" d="M 1610.42 352.858 C 1616.05 351.525 1666.93 351.507 1673.55 352.591 C 1675.56 356.357 1673.16 359.148 1672.46 363.138 C 1671.35 361.808 1670.38 358.725 1669.73 356.972 C 1665.46 354.46 1615.27 358.144 1607.74 354.775 C 1609.04 354.275 1609.1 354.132 1610.14 353.136 L 1610.42 352.858 z"/>
<path transform="translate(0,0)" fill="url(#Gradient1)" d="M 299.023 168.364 C 298.999 158.377 297.945 147.438 297.245 137.441 C 295.582 113.666 305.59 90.8056 321.286 73.3233 C 323.94 70.3669 337.005 56.8692 341.063 56.6347 C 343.758 59.9695 343.535 72.0962 351.022 82.4434 L 352.159 86.5287 C 374.212 113.239 398.271 138.77 413.337 170.209 C 415.285 174.273 415.649 189.528 415.019 194.303 C 410.811 226.202 384.564 240.891 355.302 239.943 C 357.481 237.243 362.96 230.716 363.422 227.272 C 364.535 215.647 364.193 211.44 361.299 200.063 C 360.691 199.69 356.635 190.826 355.853 189.281 C 349.832 177.187 343.082 165.471 335.64 154.196 C 335.599 164.344 335.138 172.774 333.048 182.836 C 328.357 205.417 315.806 219.365 335.804 237.793 L 335.438 239.018 C 332.32 240.955 329.676 240.962 326.14 240.662 C 298.84 238.348 267.548 226.627 260.957 196.841 C 259.188 188.845 257.876 164.886 268.714 162.636 C 276.137 166.221 282.945 194.541 299.023 168.364 z"/>
<path transform="translate(0,0)" fill="rgb(233,99,44)" d="M 361.299 200.063 L 362.753 198.525 C 366.931 205.284 369.254 222.613 365.489 229.809 L 364.322 229.914 L 363.422 227.272 C 364.535 215.647 364.193 211.44 361.299 200.063 z"/>
<path transform="translate(0,0)" fill="rgb(241,163,60)" d="M 351.022 82.4434 L 352.159 86.5287 C 351.532 89.8803 352.093 89.8636 350.079 91.8781 L 347.717 91.7881 C 345.634 89.4291 346.218 90.3722 345.748 87.037 C 347.541 83.2998 346.509 84.5265 351.022 82.4434 z"/>
<path transform="translate(0,0)" fill="rgb(236,111,45)" d="M 1830.43 273.173 C 1830.58 271.015 1830.5 269.649 1831.65 267.814 C 1836.9 264.697 1862.52 266.247 1869.84 266.378 C 1872.57 266.319 1876.49 265.805 1878.54 267.328 C 1880.48 275.286 1871.41 304.489 1871.65 314.606 C 1877.76 318.278 1907.04 313.538 1912.3 317.424 C 1913.83 325.492 1908.9 342.387 1908.74 352.039 C 1893.78 351.698 1878.82 351.661 1863.85 351.928 C 1861.17 380.761 1851.23 411.078 1851.97 439.528 C 1866.11 462.554 1884.22 442.247 1891.86 449.999 C 1892.63 454.086 1892.44 462.237 1890.15 465.906 C 1890.13 469.582 1890.49 476.475 1888.98 479.458 C 1876.62 490.154 1835.05 489.003 1821.08 481.396 C 1773.3 461.558 1818.91 365.474 1810.5 352.257 C 1804.07 348.587 1788.37 354.722 1782.84 348.9 C 1786.78 312.458 1781.13 315.677 1818.32 315.914 C 1819.71 315.923 1821.79 315.505 1823.17 315.163 C 1826.31 302.374 1827.47 285.523 1830.43 273.173 z"/>
<path transform="translate(0,0)" fill="rgb(233,99,44)" d="M 1821.08 481.396 C 1821.67 480.34 1822.45 480.066 1823.52 479.47 C 1837.55 483.957 1865.85 483.383 1880.44 479.777 C 1888.93 477.678 1884.54 465.557 1888.66 457.726 L 1889.55 457.969 L 1890.15 465.906 C 1890.13 469.582 1890.49 476.475 1888.98 479.458 C 1876.62 490.154 1835.05 489.003 1821.08 481.396 z"/>
<path transform="translate(0,0)" fill="rgb(31,51,79)" d="M 1243.58 486.766 C 1224 482.419 1205.05 476.314 1194.53 458.216 C 1170.21 416.369 1186.81 351.92 1227.86 326.662 C 1245.47 315.82 1263.49 311.464 1283.81 311.762 C 1299.45 311.849 1332.87 310.938 1344.48 322.52 C 1345.67 325.164 1338.14 348.067 1336.86 352.809 C 1332.13 356.324 1322.1 349.801 1315.99 348.554 C 1278.74 340.944 1244.66 355.703 1239.44 396.225 C 1237.62 410.028 1236.41 425.037 1244.56 437.449 C 1247.22 441.45 1262.9 450.019 1266.61 450.403 C 1288.33 452.647 1307.99 447.191 1326.93 437.865 C 1327.37 448.063 1329.02 463.318 1328.82 472.626 C 1320.25 478.955 1289.55 488.419 1279.1 486.839 C 1269.68 487.558 1252.9 487.242 1243.58 486.766 z"/>
<path transform="translate(0,0)" fill="rgb(16,29,54)" d="M 1243.58 486.766 C 1244.17 485.914 1245.16 483.983 1246.07 483.858 C 1252.36 483 1275.01 482.733 1279.1 486.839 C 1269.68 487.558 1252.9 487.242 1243.58 486.766 z"/>
<path transform="translate(0,0)" fill="rgb(236,111,45)" d="M 431.746 437.375 C 433.149 433.289 434.397 426.917 436.519 424.202 C 439.2 427.267 437.933 444.891 437.627 449.765 C 434.855 493.89 410.279 531.52 371.992 553.27 C 371.919 553.312 371.076 555.777 371.037 555.98 C 381.05 555.84 411.061 554.975 419.486 555.884 C 424.17 554.237 441.206 551.791 446.028 552.631 C 441.005 565.78 353.157 626.132 339.989 622.729 C 312.736 615.688 248.627 573.835 228.977 553.813 C 275.942 554.162 305.469 549.16 348.539 525.728 C 357.163 521.036 371.881 508.966 377.597 506.005 L 378.098 505.751 C 384.639 499.809 391.221 493.912 397.843 488.061 C 409.619 474.945 418.215 464.778 426.306 449.127 C 427.64 444.918 429.702 441.28 431.746 437.375 z"/>
<path transform="translate(0,0)" fill="rgb(233,99,44)" d="M 371.037 555.98 C 381.05 555.84 411.061 554.975 419.486 555.884 C 422.771 555.99 424.87 556.186 428.123 556.655 L 427.788 557.26 C 414.494 557.21 380.525 564.008 371.037 555.98 z"/>
<path transform="translate(0,0)" fill="rgb(233,99,44)" d="M 397.843 488.061 C 398.289 494.327 385.655 505.418 380.544 506.273 L 378.098 505.751 C 384.639 499.809 391.221 493.912 397.843 488.061 z"/>
<path transform="translate(0,0)" fill="rgb(233,99,44)" d="M 426.306 449.127 C 427.64 444.918 429.702 441.28 431.746 437.375 C 434.038 441.865 436.459 448.193 431.257 451.411 C 429.712 450.821 429.372 450.665 428.018 449.718 L 427.169 450.154 L 426.306 449.127 z"/>
<path transform="translate(0,0)" fill="rgb(236,111,45)" d="M 1694.48 445.646 C 1694.2 443.81 1714.24 320.282 1716.02 316.803 C 1721.74 315.113 1762.14 315.131 1767.08 317.119 C 1765.97 331.82 1759.21 366.881 1756.75 382.903 C 1754.51 397.552 1748.38 440.338 1744.96 452.141 C 1745.52 454.704 1741.38 476.787 1741.26 483.588 C 1732.63 483.561 1694.77 485.602 1690.31 482.278 C 1687.49 477.247 1692.98 451.963 1694.48 445.646 z"/>
<path transform="translate(0,0)" fill="rgb(233,99,44)" d="M 1737.4 479.804 C 1737.77 466.853 1743.08 457.429 1743.61 441.545 L 1744.7 441.052 C 1745.18 445.564 1744.67 448.339 1744.96 452.141 C 1745.52 454.704 1741.38 476.787 1741.26 483.588 C 1732.63 483.561 1694.77 485.602 1690.31 482.278 C 1687.49 477.247 1692.98 451.963 1694.48 445.646 C 1698.04 453.313 1692.99 469.711 1693.5 480.999 C 1708.8 479.179 1722.03 479.519 1737.4 479.804 z"/>
<path transform="translate(0,0)" fill="rgb(31,51,79)" d="M 268.471 284.419 C 279.791 282.354 291.216 280.908 302.695 280.088 C 326.081 278.628 387.779 277.927 410.307 289.722 C 411.994 290.605 415.623 294.702 416.891 296.339 C 417.297 306.888 412.715 339.905 400.708 342.423 C 391.515 341.708 379.17 337 369.588 335.353 C 339.276 330.143 306.159 334.423 277.122 343.643 C 276.726 344.112 274.699 345.044 274.013 345.395 L 271.436 344.545 C 267.012 340.405 263.73 333.234 261.589 327.617 C 255.726 310.536 253.776 296.759 268.471 284.419 z"/>
<path transform="translate(0,0)" fill="rgb(16,29,54)" d="M 268.471 284.419 C 279.791 282.354 291.216 280.908 302.695 280.088 C 326.081 278.628 387.779 277.927 410.307 289.722 C 411.994 290.605 415.623 294.702 416.891 296.339 C 417.297 306.888 412.715 339.905 400.708 342.423 C 391.515 341.708 379.17 337 369.588 335.353 C 339.276 330.143 306.159 334.423 277.122 343.643 L 276.423 341.303 C 298.137 330.887 342.599 328.858 366.262 331.934 C 376.647 333.283 390.481 337.879 401.805 339.97 C 403.635 336.541 405.49 333.094 407.127 329.568 C 411.038 321.142 416.635 306.841 413.003 297.56 C 411.306 293.226 407.213 291.171 403.141 289.533 C 381.468 280.815 291.715 278.611 270.345 288.075 C 252.154 296.132 266.885 314.625 261.794 327.131 C 261.728 327.294 261.657 327.455 261.589 327.617 C 255.726 310.536 253.776 296.759 268.471 284.419 z"/>
<path transform="translate(0,0)" fill="rgb(205,208,207)" d="M 234.463 406.799 C 238.264 410.854 241.82 423.904 245.552 429.347 C 274.224 471.169 314.117 498.034 365.655 496.897 C 358.11 500.725 352.711 503.706 345.531 508.175 C 314.191 522.995 284.009 536.256 259.372 504.726 C 235.699 474.43 230.382 443.925 234.463 406.799 z"/>
<path transform="translate(0,0)" fill="rgb(236,111,45)" d="M 1744.67 236.424 C 1760.43 233.884 1776.95 239.769 1781.64 256.26 C 1783.81 264.067 1782.81 272.417 1778.85 279.486 C 1772.99 289.987 1765.17 293.506 1754.33 296.583 C 1709.25 302.535 1702.19 249.639 1744.67 236.424 z"/>
</svg>